# xmcd CD database file
#
# Track frame offsets:
#	150
#	16377
#	36772
#	63706
#
# Disc length: 1146 seconds
#
# Revision: 0
# Processed by: cddbd v1.5.2PL0 Copyright (c) Steve Scherf et al.
# Submitted via: CDex 1.50Beta7
#
DISCID=2f047804
DTITLE=DúBlues - Demo
DYEAR=2006
DGENRE=Blues
TTITLE0=Chitilins com Carne
TTITLE1=I'm Ready
TTITLE2=Sweet Home Alabama
TTITLE3=The Thrill is Gone
EXTD=YEAR: 2006
EXTT0=
EXTT1=
EXTT2=
EXTT3=
PLAYORDER=
